#!OML:ASF E:\Steps\Project 1\Capture day 1\Session 2\Subject.ASF
:FULLY-SPECIFIED
:DEGREES
523
root 9.78381 16.3296 2.17006 -158.457 1.07288 176.428
lowerback -22.1907 -0.607021 -7.99997
upperback 1.95107 1.69547 -1.16592
thorax 14.6395 0.243255 3.83038
lowerneck -3.78591 -0.807864 -1.8547
upperneck 22.6638 -3.3389 2.92841
head 7.65233 -2.14198 0.934499
rclavicle -5.31749e-015 8.94531e-015
rhumerus -31.1542 -6.06225 -84.181
rradius 45.7648
rwrist -9.54754
rhand -5.25895 -57.0059
rfingers 7.12502
rthumb 20.5446 -85.9388
lclavicle -5.31749e-015 8.94531e-015
lhumerus -34.7793 9.14084 75.6163
lradius 21.3558
lwrist -9.20371
lhand -17.893 -12.6345
lfingers 7.12502
lthumb 8.37356 17.1795
rfemur -16.6245 6.52499 20.1142
rtibia 10.2612
rfoot -21.8921 -5.90726
rtoes -28.1791
lfemur -71.3727 -4.63802 -19.9079
ltibia 62.0846
lfoot -8.53914 -0.0711665
ltoes -32.0575
524
root 9.77539 16.3239 2.09986 -158.273 1.13398 176.482
lowerback -22.3006 -0.577552 -8.04727
upperback 1.89528 1.76651 -1.19932
thorax 14.6286 0.277631 3.84564
lowerneck -3.00277 -0.792035 -1.62622
upperneck 21.5779 -3.17331 2.80264
head 7.14554 -2.03371 0.885859
rclavicle 4.12478e-015 2.72335e-014
rhumerus -31.1358 -5.9612 -84.3421
rradius 45.7378
rwrist -9.51567
rhand -7.01407 -54.2789
rfingers 7.12502
rthumb 18.8573 -83.3849
lclavicle 4.12478e-015 2.72335e-014
lhumerus -34.8288 8.84045 75.7306
lradius 21.696
lwrist -8.98555
lhand -18.3756 -13.3763
lfingers 7.12502
lthumb 7.90783 16.4558
rfemur -16.6 6.49151 20.1346
rtibia 10.3444
rfoot -22.046 -5.78923
rtoes -28.2005
lfemur -71.0539 -4.70532 -19.8301
ltibia 61.6185
lfoot -8.47441 -0.222681
ltoes -33.5315
525
root 9.76401 16.3202 2.02938 -158.114 1.1525 176.541
lowerback -22.3537 -0.575751 -8.04949
upperback 1.85787 1.77834 -1.21449
thorax 14.614 0.286605 3.83482
lowerneck -3.74701 -0.791716 -1.71966
upperneck 22.6391 -3.29198 2.77057
head 7.63162 -2.12081 0.86427
rclavicle 0 -1.96797e-014
rhumerus -31.132 -5.67946 -84.4852
rradius 45.8361
rwrist -9.63078
rhand -6.59041 -55.182
rfingers 7.12502
rthumb 19.2647 -84.2478
lclavicle 0 -1.96797e-014
lhumerus -34.9158 8.3642 75.957
lradius 22.147
lwrist -8.45546
lhand -18.8557 -14.0687
lfingers 7.12502
lthumb 7.4444 15.7803
rfemur -16.4627 6.5249 20.1743
rtibia 10.3215
rfoot -22.0699 -5.79864
rtoes -28.51
lfemur -70.6866 -4.8117 -19.7416
ltibia 61.2208
lfoot -8.37001 -0.339601
ltoes -32.9372
526
root 9.74912 16.3194 1.95677 -157.999 1.15372 176.605
lowerback -22.3251 -0.559047 -7.98485
upperback 1.8148 1.7833 -1.23874
thorax 14.5471 0.300652 3.77125
lowerneck -4.02319 -0.828268 -1.84171
upperneck 22.9047 -3.36432 2.81999
head 7.77411 -2.16197 0.890097
rclavicle -4.96962e-016 2.38542e-015
rhumerus -31.1991 -5.46676 -84.6226
rradius 46.0121
rwrist -9.63987
rhand -6.41427 -55.2306
rfingers 7.12502
rthumb 19.4341 -84.2794
lclavicle -4.96962e-016 2.38542e-015
lhumerus -35.1202 7.95344 76.1132
lradius 22.7591
lwrist -7.88299
lhand -18.8532 -14.1953
lfingers 7.12502
lthumb 7.44688 15.6536
rfemur -16.1355 6.51072 20.2125
rtibia 10.0674
rfoot -22.1135 -6.09657
rtoes -30.1247
lfemur -70.2195 -4.94678 -19.6605
ltibia 60.7911
lfoot -8.2373 -0.278988
ltoes -31.3859
527
root 9.73508 16.3166 1.88508 -157.87 1.34795 176.486
lowerback -22.3436 -0.513012 -8.15026
upperback 1.76522 1.9167 -1.35674
thorax 14.4839 0.362871 3.77569
lowerneck -2.76302 -0.718619 -1.56845
upperneck 21.168 -3.00422 2.75538
head 6.96391 -1.93993 0.879195
rclavicle 2.26615e-014 -4.9895e-014
rhumerus -31.1907 -5.54754 -84.7754
rradius 45.9994
rwrist -9.31936
rhand -6.00284 -55.9184
rfingers 7.12502
rthumb 19.8296 -84.9269
lclavicle 2.26615e-014 -4.9895e-014
lhumerus -35.2353 7.56565 76.2063
lradius 23.2206
lwrist -7.58821
lhand -18.8386 -14.1837
lfingers 7.12502
lthumb 7.46092 15.6648
rfemur -15.9391 6.58585 19.9814
rtibia 9.97328
rfoot -22.263 -6.40651
rtoes -31.9306
lfemur -69.6664 -4.9952 -19.8427
ltibia 60.2879
lfoot -8.49376 -0.0899977
ltoes -30.0959
528
root 9.72279 16.3114 1.81395 -157.666 1.64239 176.375
lowerback -22.5238 -0.381337 -8.32811
upperback 1.7507 2.19279 -1.50714
thorax 14.5402 0.484017 3.80221
lowerneck -2.93209 -0.88124 -1.69337
upperneck 21.2776 -3.26429 2.95978
head 7.04076 -2.05526 0.945762
rclavicle -8.74653e-015 -1.51076e-014
rhumerus -31.1049 -5.61457 -84.9375
rradius 45.9556
rwrist -9.34795
rhand -6.27861 -55.9815
rfingers 7.12502
rthumb 19.5645 -85.0171
lclavicle -8.74653e-015 -1.51076e-014
lhumerus -34.9609 7.05445 76.3769
lradius 23.4156
lwrist -7.43836
lhand -18.9441 -14.1505
lfingers 7.12502
lthumb 7.35911 15.7015
rfemur -16.0206 6.72832 19.736
rtibia 10.1938
rfoot -22.257 -6.24869
rtoes -31.1874
lfemur -69.1869 -4.90377 -20.1042
ltibia 59.9198
lfoot -9.44055 0.189402
ltoes -30.8057
